<svg version="1.1" xmlns="http://www.w3.org/2000/svg" viewBox="-293.3759991645813 -983.0431396484375 3284.741289997101 2438.147149658203"><desc>Created with Snap</desc><defs></defs><g><g><g transform="matrix(1.024,0,0,-1.024,0,0)"><g transform="matrix(1,0,0,1,0,0)"><g transform="matrix(1.0971,0,0,1.0971,-22.5798,729.3123)"><g transform="matrix(1,0,0,-1,0,0)">
<g>
	<path d="M632.8,456.7l5.1-5.1c13.7-15.3,24-33,26.4-54.2c0-0.2,0-0.4,0-0.7c-0.3-1.5-1.7-2.4-3.1-2.1c-20.8,4.8-37.3,17-50.9,32.2
		l-4.5,5.6l-79.5-11.6c-1.4-0.2-2.7,0.2-3.7,1.2l-12.7,12.4c-0.5,0.5-0.9,1.2-1.1,1.9c-0.7,2.3,0.6,4.8,2.9,5.5l69.6,21.3L532,524.8
		l-19.2,1.1c-1.3,0.1-2.5,0.6-3.3,1.6l-5.4,6c-0.8,0.9-1.2,2.2-1.2,3.4c0.1,2.7,2.4,4.7,5.1,4.6l21.2-1.2c2.7-0.1,4.9,1.9,5.1,4.5
		l1.2,21.2c0.1,1.3,0.6,2.5,1.6,3.4c2,1.8,5,1.6,6.8-0.4l5.3-6c0.9-0.9,1.3-2.2,1.2-3.5l-1.1-19.3l55.7-55.7l28.9,66.8
		c1,2.2,3.6,3.3,5.8,2.3c0.7-0.3,1.3-0.7,1.7-1.3l10.9-14c0.8-1.1,1.1-2.5,0.8-3.8L632.8,456.7z" fill="#00203f" style=""></path>
	<path d="M202.8,349c-6.6-5.1-13-10.5-19.4-16c-6.4-5.5-12.7-11.2-19-16.8c4.8,7,9.8,13.8,14.9,20.6c5.1,6.8,10.5,13.4,16.1,19.9
		c5.6,6.6,11.6,12.9,17.9,18.8c6.4,6.1,13.3,11.8,20.6,16.9l10-17.3c-7.3-3.4-14.3-7.3-21-11.7C216,359,209.3,354.1,202.8,349z" fill="#00203f" style=""></path>
	<path d="M356.9,378.9c-8.2,1.4-16.3,2.6-24.4,3.8s-16.1,2.1-24,2.6c-7.7,0.6-15.5,0.7-23.2,0.2c-7.6-0.4-15.1-1.6-22.5-3.5l-8,22.2
		c8.5,3.8,17.4,6.7,26.5,8.6c8.9,1.9,18,3.2,27.1,3.8c9,0.7,17.8,0.9,26.5,0.9c8.7,0,17.3-0.2,25.9-0.5L356.9,378.9z" fill="#00203f" style=""></path>
	<path d="M383,416.1c9.2-0.5,18.3-1.6,27.3-3.2c9-1.5,18-3.5,26.8-5.9c8.8-2.3,17.5-5.1,26.1-8.4c8.6-3.2,17.1-6.8,25.4-10.8
		l-25-46.1c-6.5,4-13.2,7.7-20,11.1c-6.9,3.4-13.9,6.6-21.1,9.4c-7.2,2.8-14.5,5.4-21.9,7.5c-7.4,2.2-14.9,4-22.4,5.4L383,416.1z" fill="#00203f" style=""></path>
	<path d="M522.2,284.9c-3.1,5.8-6.8,11.2-10.9,16.3c-4.4,5.5-9.2,10.6-14.4,15.4c-5.4,5-11,9.7-16.9,14.1l30.1,45.6
		c16.6-9.9,31.9-21.9,45.4-35.7c7.1-7.4,13.6-15.5,19.2-24.1c6-9.2,10.8-19.1,14.4-29.4l-60.3-18.5
		C527.2,274.2,525,279.7,522.2,284.9z" fill="#00203f" style=""></path>
	<path d="M509.8,208c4.1,4.8,7.8,10,11,15.4c2.9,5,5.3,10.3,7,15.8c1.6,5,2.4,10.3,2.5,15.5l64.6,2.8c0.8-11.6-0.2-23.2-2.8-34.5
		c-2.5-10.8-6.3-21.3-11.2-31.2c-4.7-9.4-10.3-18.4-16.7-26.8c-6.1-8.1-12.8-15.7-20-22.8l-48.6,51.3
		C500.7,198,505.4,202.9,509.8,208z" fill="#00203f" style=""></path>
	<path d="M444.1,160.5c6.6,3,13,6.4,19.3,10c6.2,3.6,12.2,7.4,18,11.6l43.7-56.9c-7.6-6-15.5-11.7-23.7-16.9
		c-8.1-5.2-16.4-9.9-25-14.2c-8.5-4.3-17.3-8.3-26.2-11.8c-8.9-3.5-18.1-6.5-27.4-9.2l-19.5,72.9c7,1.7,13.9,3.9,20.7,6.3
		C430.7,154.8,437.5,157.5,444.1,160.5z" fill="#00203f" style=""></path>
	<path d="M324.3,143.8c13.1-2.9,26.6-4.1,40-3.5c6.9,0.3,13.9,1,20.7,2.1l12.9-75c-9.7-1.8-19.5-3-29.4-3.7
		c-20.2-1.4-40.6,0-60.4,4.2c-9.8,2.1-19.5,4.7-29,8l25.6,73.4C311.1,147.1,317.6,145.2,324.3,143.8z" fill="#00203f" style=""></path>
	<path d="M234.9,192c5.4-4.9,11.1-9.4,16.8-13.7c5.8-4.3,11.7-8.3,17.8-12c6-3.7,12.2-7,18.5-10l-32.9-70.5
		c-8.9,4.1-17.6,8.7-26,13.8c-8.3,5-16.3,10.4-24.1,16.3c-7.7,5.8-15.1,11.9-22.2,18.3s-13.9,13.1-20.3,20l56.5,53.2
		C224.1,202,229.4,196.8,234.9,192z" fill="#00203f" style=""></path>
	<path d="M169.2,277.6c3.4-6.6,7.1-13.2,11-19.6c3.9-6.4,8-12.6,12.3-18.7c4.4-6.1,8.9-12,13.6-17.7l-59.8-48.9
		c-5.9,7.3-11.5,14.9-16.8,22.6s-10.3,15.7-15,23.8c-4.7,8.1-9.1,16.3-13.1,24.8c-4.1,8.4-7.8,17-11.2,25.7l69.5,28.4
		C162.6,291,165.8,284.2,169.2,277.6z" fill="#00203f" style=""></path>
	<path d="M137.6,381.1c0.7-7.3,1.8-14.6,3.2-21.9s3-14.5,5-21.7s4.2-14.3,6.7-21.3L82,292.6c-5.7,17.9-9.9,36.3-12.6,54.9
		c-1.3,9.3-2.3,18.8-2.8,28.2c-0.5,9.5-0.6,19-0.2,28.5l69.8-1.2C136.3,395.7,136.8,388.4,137.6,381.1z" fill="#00203f" style=""></path>
	<path d="M149.2,488.6c-2.3-7.1-4.2-14.4-5.8-21.8c-1.6-7.4-3-14.8-4.1-22.2s-1.9-15-2.4-22.4L68.5,429c1.2,9.3,2.7,18.5,4.6,27.6
		s4.2,18.1,6.9,27c5.3,18,12.3,35.4,20.8,52.1l56-26.2C154,502.7,151.4,495.7,149.2,488.6z" fill="#00203f" style=""></path>
	<path d="M189.2,563.4c-4.7-5.6-9.1-11.4-13.1-17.4c-4.1-6.1-7.8-12.4-11.1-18.9l-52,30.2c5.1,8.1,10.6,15.8,16.6,23.2
		c17.9,22.5,40,41.3,65.1,55.5l26.8-43C209.5,584.5,198.7,574.6,189.2,563.4z" fill="#00203f" style=""></path>
	<path d="M301.8,625.4c-7.6-1.2-15.1-2.9-22.4-5c-14.5-4.1-28.5-9.8-41.6-17.2l-20.9,43.6c8.6,3.6,17.5,6.7,26.6,9.3
		c9,2.5,18.1,4.5,27.2,5.9c9.1,1.4,18.3,2.2,27.5,2.6c9.1,0.3,18.2,0.1,27.3-0.6l-0.5-36C317.2,627.6,309.5,626.7,301.8,625.4z" fill="#00203f" style=""></path>
	<path d="M416.2,616.2c-7.7,2.5-15.6,4.5-23.4,6.3c-7.9,1.8-15.8,3.1-23.7,4.1c-7.9,1-15.8,1.6-23.7,1.8l3.4,32.7
		c8.8-1.5,17.6-3.5,26.2-6c8.6-2.4,17-5.3,25.2-8.5c8.2-3.3,16.2-6.9,24-10.9c7.8-4,15.4-8.4,22.7-13.1l-7.7-14.7
		C431.6,610.9,423.9,613.8,416.2,616.2z" fill="#00203f" style=""></path>
	<path d="M484.5,584.4c-4.2,2.6-8.4,5.1-12.7,7.6c-4.3,2.4-8.6,4.7-13,6.9l6.7,10.6c4-3.1,8-6.3,11.8-9.7c3.8-3.3,7.6-6.7,11.2-10.2
		c3.6-3.5,7.2-7.1,10.6-10.8c3.4-3.7,6.7-7.5,9.9-11.3c-4,3-8.1,5.9-12.1,8.8S488.7,581.8,484.5,584.4z" fill="#00203f" style=""></path>
</g><defs></defs></g></g></g><g transform="matrix(1,0,0,1,744.2552,0)"><path d="M213 0L63 398Q53 423 40 431Q28 439 -4 439L-4 468L204 468L204 439L164 439Q145 439 145 422Q145 416 148 408L262 95L265 95L378 409Q380 417 380 421Q380 439 363 439L319 439L319 468L487 468L487 439Q455 439 442 430Q429 422 419 398L261 0L213 0Z" fill="#00203f" style=""></path></g><g transform="matrix(1,0,0,1,1236.2552,0)"><path d="M460 239L460 230L142 230Q144 137 175 83Q207 29 287 29Q345 29 379 59Q413 89 429 136L457 124Q436 63 392 26Q348 -11 261 -11Q154 -11 101 51Q49 113 49 229Q49 348 103 413Q157 479 262 479Q460 479 460 239ZM142 262L367 262Q367 357 344 402Q321 448 263 448Q204 448 175 401Q146 355 142 262Z" fill="#00203f" style=""></path></g><g transform="matrix(1,0,0,1,1742.2552,0)"><path d="M485 83Q485 58 489 47Q493 37 507 33Q521 29 554 29L554 0L335 0L335 29Q367 29 380 32Q393 36 397 46Q401 56 401 81L401 324Q401 372 378 401Q356 431 308 431Q269 431 242 412Q215 394 190 360L190 81Q190 56 194 45Q198 35 211 32Q224 29 255 29L255 0L36 0L36 29Q69 29 83 33Q97 37 100 47Q104 57 104 83L104 381Q104 407 98 415Q92 424 75 424L41 424L41 454L159 474L187 474L187 400L188 400Q222 440 261 459Q300 479 350 479Q485 479 485 335L485 83Z" fill="#00203f" style=""></path></g><g transform="matrix(1,0,0,1,2329.2552,0)"><path d="M182 -11Q141 -11 112 13Q84 37 84 94L84 436L11 436L11 466Q115 477 140 620L169 620L169 468L280 468L280 436L169 436L169 109Q169 68 181 50Q194 33 219 33Q235 33 252 40Q269 48 281 57L292 33Q262 11 239 0Q217 -11 182 -11Z" fill="#00203f" style=""></path></g></g></g><g transform="matrix(0.75,0,0,0.75,0,955.904)"><g transform="matrix(1.024,0,0,-1.024,0,0)"><path d="M210 536L210 458L214 458Q246 496 283 518Q320 540 369 540Q426 540 473 519Q521 499 556 462Q591 425 610 374Q630 324 630 264Q630 203 610 152Q590 102 555 66Q520 30 472 10Q424 -10 368 -10Q322 -10 284 5Q247 21 214 56L214 -90Q214 -130 218 -154Q222 -178 234 -191Q246 -204 268 -209Q291 -214 328 -215L328 -250L20 -250L20 -215Q50 -214 68 -209Q87 -204 97 -191Q108 -178 112 -156Q116 -133 116 -97L116 277Q116 335 114 372Q113 409 109 423Q104 447 86 455Q68 464 18 464L18 498L210 536ZM240 429Q227 409 220 381Q214 354 214 310L214 232Q214 205 215 185Q217 166 220 152Q223 138 228 127Q233 116 241 106Q264 74 296 56Q328 39 363 39Q432 39 474 97Q517 155 517 260Q517 312 505 354Q494 397 473 427Q452 458 422 475Q393 492 357 492Q321 492 290 475Q260 459 240 429ZM888 830L888 156Q888 118 891 95Q894 72 903 59Q913 46 930 41Q948 36 977 35L977 0L701 0L701 35Q731 36 749 41Q767 47 777 59Q788 71 791 92Q795 114 795 149L795 580Q795 634 793 670Q792 707 789 720Q784 743 765 751Q747 759 699 759L699 793L888 830ZM1467 272L1467 370Q1467 411 1465 434Q1463 458 1454 470Q1446 483 1429 487Q1413 492 1384 495L1384 530L1565 530L1565 223Q1565 166 1566 130Q1568 94 1571 76Q1573 63 1577 55Q1582 48 1591 43Q1600 39 1614 37Q1629 36 1652 36L1652 1L1487 -11L1476 109L1472 109Q1434 47 1384 18Q1335 -10 1281 -10Q1239 -10 1199 6Q1160 22 1140 49Q1123 71 1115 110Q1108 149 1108 211L1108 370Q1108 411 1106 434Q1104 458 1095 470Q1087 483 1070 487Q1054 492 1025 495L1025 530L1206 530L1206 257Q1206 148 1231 99Q1257 50 1313 50Q1401 50 1450 165Q1455 177 1458 187Q1461 197 1463 209Q1465 221 1466 236Q1467 251 1467 272ZM1780 35L1760 0L1738 0L1738 172L1763 172Q1802 31 1905 31Q1945 31 1968 50Q1992 70 1992 110Q1992 125 1987 135Q1983 146 1970 157Q1958 169 1935 184Q1913 199 1876 222Q1842 243 1817 261Q1792 279 1775 297Q1758 316 1749 337Q1741 358 1741 386Q1741 420 1752 448Q1764 477 1784 497Q1804 517 1831 528Q1858 540 1890 540Q1917 540 1946 531Q1975 523 1997 509L2017 530L2036 530L2036 386L2010 386Q1988 447 1962 473Q1936 499 1898 499Q1864 499 1843 481Q1823 463 1823 431Q1823 414 1828 401Q1834 389 1846 377Q1858 365 1876 352Q1895 340 1921 324Q1964 297 1994 276Q2025 255 2044 234Q2063 214 2072 192Q2081 170 2081 142Q2081 71 2035 30Q1989 -10 1914 -10Q1836 -10 1780 35Z" fill="#00203f" style=""></path></g></g></g></svg>